<?xml version="1.0" encoding="UTF-8" standalone="no"?>
<svg
   viewBox="0 0 500 500"
   version="1.1"
   id="svg2"
   sodipodi:docname="commerce.svg"
   width="30"
   height="30"
   inkscape:version="1.4 (86a8ad7, 2024-10-11)"
   xmlns:inkscape="http://www.inkscape.org/namespaces/inkscape"
   xmlns:sodipodi="http://sodipodi.sourceforge.net/DTD/sodipodi-0.dtd"
   xmlns="http://www.w3.org/2000/svg"
   xmlns:svg="http://www.w3.org/2000/svg">
  <defs
     id="defs2" />
  <sodipodi:namedview
     id="namedview2"
     pagecolor="#ffffff"
     bordercolor="#000000"
     borderopacity="0.25"
     inkscape:showpageshadow="2"
     inkscape:pageopacity="0.0"
     inkscape:pagecheckerboard="0"
     inkscape:deskcolor="#d1d1d1"
     inkscape:zoom="5.6568543"
     inkscape:cx="41.630912"
     inkscape:cy="34.20629"
     inkscape:window-width="1920"
     inkscape:window-height="1009"
     inkscape:window-x="1912"
     inkscape:window-y="-8"
     inkscape:window-maximized="1"
     inkscape:current-layer="svg2" />
  <path
     d="M 0,0 H 512 V 512 H 0 Z"
     fill="#000000"
     fill-opacity="1"
     id="path1" />
  <g
     class=""
     id="g2">
    <path
       d="m 256.18,21 c -23.242,0 -46.577,3.01 -63.186,8.54 -8.304,2.763 -14.868,6.196 -18.808,9.558 -3.94,3.36 -5.167,5.956 -5.186,8.96 L 168.943,57 H 41 V 71 H 471 V 57 H 342.967 L 343,47.967 c 0.01,-3.002 -1.17,-5.55 -5.057,-8.895 -3.887,-3.344 -10.407,-6.773 -18.677,-9.535 C 302.724,24.014 279.42,21 256.18,21 Z M 38.277,89 27.834,183 h 80.9 L 128.977,96.64 122.81,183 h 81.07 L 220.994,96.32 217.898,183 h 75.75 L 289.014,96.482 307.694,183 h 81.497 L 383.024,96.64 403.266,183 h 80.9 L 473.723,89 Z m -12.443,112 -0.51,4.588 C 39.822,226.445 52.968,235 64,235 c 11.32,0 24.852,-8.89 39.8,-30.96 l 0.714,-3.04 z m 95.687,0 -0.32,4.498 C 135.753,226.495 148.935,235 160,235 c 11.293,0 24.788,-8.85 39.693,-30.803 l 0.63,-3.197 z m 95.736,0 -0.156,4.352 C 231.69,226.455 244.908,235 256,235 c 11.08,0 24.28,-8.525 38.85,-29.576 L 294.613,201 h -77.357 z m 94.324,0 0.674,3.12 c 15,22.192 28.503,31.044 39.773,31.013 11.03,-0.03 24.212,-8.62 38.772,-29.637 L 390.48,201 h -78.9 z m 95.906,0 0.713,3.04 c 14.947,22.07 28.48,30.96 39.8,30.96 11.032,0 24.178,-8.555 38.676,-29.412 L 486.166,201 h -78.68 z M 112,223.31 C 97.313,242.11 81.492,253 64,253 50.028,253 37.116,246.094 25,233.736 V 487 H 343 V 279 h 114 v 208 h 30 V 233.736 C 474.884,246.094 461.972,253 448,253 c -17.49,0 -33.31,-10.888 -47.996,-29.684 -14.664,18.808 -30.432,29.77 -47.926,29.817 -17.508,0.048 -33.352,-10.87 -48.092,-29.807 C 289.303,242.116 273.486,253 256,253 238.508,253 222.687,242.11 208,223.31 193.313,242.11 177.492,253 160,253 142.508,253 126.687,242.11 112,223.31 Z M 55,279 H 313 V 457 H 55 Z m 18,18 V 439 H 295 V 297 Z m 288,0 v 71.064 l 78,0.573 V 297 Z M 88,312 H 216 C 107.765,320 99.69,336 88,425.11 Z m 273,74.066 v 13.998 l 78,0.573 v -14.002 l -78,-0.57 z m 0,32 V 487 h 78 v -68.365 l -78,-0.57 z"
       fill="#ffffff"
       fill-opacity="1"
       id="path2" />
  </g>
</svg>
