<?xml version="1.0" encoding="UTF-8" standalone="no"?>
<svg
   viewBox="0 0 500 500"
   version="1.1"
   id="svg2"
   sodipodi:docname="danger.svg"
   width="30"
   height="30"
   inkscape:version="1.4 (86a8ad7, 2024-10-11)"
   xmlns:inkscape="http://www.inkscape.org/namespaces/inkscape"
   xmlns:sodipodi="http://sodipodi.sourceforge.net/DTD/sodipodi-0.dtd"
   xmlns="http://www.w3.org/2000/svg"
   xmlns:svg="http://www.w3.org/2000/svg">
  <defs
     id="defs2" />
  <sodipodi:namedview
     id="namedview2"
     pagecolor="#ffffff"
     bordercolor="#000000"
     borderopacity="0.25"
     inkscape:showpageshadow="2"
     inkscape:pageopacity="0.0"
     inkscape:pagecheckerboard="0"
     inkscape:deskcolor="#d1d1d1"
     inkscape:zoom="1.6191406"
     inkscape:cx="256"
     inkscape:cy="157.18215"
     inkscape:window-width="1920"
     inkscape:window-height="1009"
     inkscape:window-x="1912"
     inkscape:window-y="-8"
     inkscape:window-maximized="1"
     inkscape:current-layer="svg2" />
  <path
     d="M 0,0 H 512 V 512 H 0 Z"
     fill="#000000"
     fill-opacity="1"
     id="path1" />
  <g
     class=""
     id="g2">
    <path
       d="m 254.97,34.75 c -30.48,-0.167 -59.02,22.12 -79.532,62.156 -0.075,0.146 -0.176,0.26 -0.25,0.406 l -132.125,229.471 -0.22,0.343 C 18.5,365.413 13.377,401.515 28.47,428.03 c 15.08,26.498 48.627,40.126 93.5,37.908 h 265.093 c 44.887,2.227 78.445,-11.404 93.53,-37.907 15.09,-26.51 9.956,-62.595 -14.375,-100.874 l -0.22,-0.375 L 335.28,98.064 c -0.06,-0.12 -0.124,-0.225 -0.186,-0.344 C 314.146,57.457 285.468,34.917 254.969,34.75 Z m 0.06,18.844 c 13.576,0.13 26.453,6.93 38.126,18.343 11.606,11.347 22.554,27.453 33.406,48.344 0.063,0.122 0.125,0.224 0.188,0.345 l 115.22,201.563 c 0.033,0.053 0.058,0.102 0.092,0.156 l 0.125,0.22 c 12.92,20.274 21.395,38.06 25.282,53.967 3.91,16.01 3.063,30.648 -3.845,42.408 -6.908,11.76 -19.222,19.533 -34.78,23.906 -15.444,4.34 -34.508,5.656 -57.408,4.5 H 137.625 c -24.845,1.258 -44.73,-0.32 -60.405,-5.125 -15.78,-4.84 -27.68,-13.45 -33.72,-25.69 -6.04,-12.237 -5.862,-26.797 -1.5,-42.436 4.333,-15.535 12.815,-32.608 24.875,-51.53 l 0.22,-0.377 L 183.562,120 c 0.08,-0.157 0.17,-0.28 0.25,-0.438 10.698,-20.918 21.508,-36.962 33.063,-48.186 11.642,-11.307 24.58,-17.913 38.156,-17.78 z m 47.657,62.093 -28.53,224.032 H 232.313 L 204.438,120.5 c -1.404,2.556 -2.81,5.205 -4.22,7.97 l -0.093,0.218 -0.125,0.218 -116.938,202.97 -0.093,0.187 -0.126,0.187 C 71.28,350.346 63.598,366.226 60,379.125 c -3.598,12.9 -3.108,22.322 0.25,29.125 3.358,6.803 9.925,12.28 22.47,16.125 12.542,3.845 30.67,5.547 54.405,4.313 l 0.25,-0.032 h 234.313 l 0.25,0.03 c 21.85,1.138 39.308,-0.28 51.875,-3.81 12.566,-3.533 19.822,-8.827 23.687,-15.407 3.865,-6.58 4.978,-15.545 1.813,-28.5 -3.166,-12.958 -10.732,-29.374 -23.094,-48.72 l -0.126,-0.188 -0.125,-0.218 -115.658,-202.28 -0.093,-0.158 -0.064,-0.187 c -2.5,-4.828 -4.99,-9.326 -7.47,-13.532 z M 231.28,361.875 h 43.907 v 43.906 H 231.28 v -43.905 z"
       fill="#ffffff"
       fill-opacity="1"
       id="path2" />
  </g>
</svg>
