<?xml version="1.0" encoding="UTF-8" standalone="no"?>
<svg
   viewBox="0 0 500 500"
   version="1.1"
   id="svg2"
   sodipodi:docname="residence.svg"
   width="30"
   height="30"
   inkscape:version="1.4 (86a8ad7, 2024-10-11)"
   xmlns:inkscape="http://www.inkscape.org/namespaces/inkscape"
   xmlns:sodipodi="http://sodipodi.sourceforge.net/DTD/sodipodi-0.dtd"
   xmlns="http://www.w3.org/2000/svg"
   xmlns:svg="http://www.w3.org/2000/svg">
  <defs
     id="defs2" />
  <sodipodi:namedview
     id="namedview2"
     pagecolor="#ffffff"
     bordercolor="#000000"
     borderopacity="0.25"
     inkscape:showpageshadow="2"
     inkscape:pageopacity="0.0"
     inkscape:pagecheckerboard="0"
     inkscape:deskcolor="#d1d1d1"
     inkscape:zoom="1.6191406"
     inkscape:cx="256"
     inkscape:cy="256"
     inkscape:window-width="1920"
     inkscape:window-height="1009"
     inkscape:window-x="1912"
     inkscape:window-y="-8"
     inkscape:window-maximized="1"
     inkscape:current-layer="svg2" />
  <path
     d="M 0,0 H 512 V 512 H 0 Z"
     fill="#000000"
     fill-opacity="1"
     id="path1" />
  <g
     class=""
     id="g2">
    <path
       d="M 256,32 32,240 H 96 V 480 H 416 V 240 h 64 z m -3.1,145.5 3,0.1 c 15.6,0 30.1,17.1 30.1,40.3 0,11.6 -3.9,22 -9.7,29.3 l -7.3,8.9 11.5,1.8 c 8.8,1.4 14.8,5.5 19.8,12.3 5,6.7 8.6,16.1 11.1,27 4.3,19.9 4.6,44.4 4.6,65.9 h -25 l -6.3,96.4 c -17.6,4.1 -37.1,4.2 -55.3,0 l -7.2,-96.4 H 196 c 0.2,-21.3 1.2,-45.4 6,-65.1 2.6,-10.9 6.4,-20.3 11.4,-27.1 4.9,-6.8 10.7,-10.9 18.5,-12.5 l 11.2,-2.1 -7.2,-8.6 c -6.1,-7.4 -10.3,-18 -10.3,-29.8 0,-21.8 13,-38.5 27.3,-40.4 z"
       fill="#ffffff"
       fill-opacity="1"
       id="path2" />
  </g>
</svg>
