<?xml version="1.0" encoding="UTF-8" standalone="no"?>
<svg
   viewBox="0 0 500 500"
   version="1.1"
   id="svg2"
   sodipodi:docname="secret.svg"
   width="30"
   height="30"
   inkscape:version="1.4 (86a8ad7, 2024-10-11)"
   xmlns:inkscape="http://www.inkscape.org/namespaces/inkscape"
   xmlns:sodipodi="http://sodipodi.sourceforge.net/DTD/sodipodi-0.dtd"
   xmlns="http://www.w3.org/2000/svg"
   xmlns:svg="http://www.w3.org/2000/svg">
  <defs
     id="defs2" />
  <sodipodi:namedview
     id="namedview2"
     pagecolor="#ffffff"
     bordercolor="#000000"
     borderopacity="0.25"
     inkscape:showpageshadow="2"
     inkscape:pageopacity="0.0"
     inkscape:pagecheckerboard="0"
     inkscape:deskcolor="#d1d1d1"
     inkscape:zoom="1.6191406"
     inkscape:cx="256"
     inkscape:cy="256"
     inkscape:window-width="1920"
     inkscape:window-height="1009"
     inkscape:window-x="1912"
     inkscape:window-y="-8"
     inkscape:window-maximized="1"
     inkscape:current-layer="svg2" />
  <path
     d="M 0,0 H 512 V 512 H 0 Z"
     fill="#000000"
     fill-opacity="1"
     id="path1" />
  <g
     class=""
     id="g2">
    <path
       d="M 257.78,19.438 C 129.86,19.454 26.03,123.293 26.03,251.218 c 0,55.734 19.71,106.776 52.532,146.72 L 57.75,434.094 h 132.406 l -66.312,-114.72 -22.375,39 c -20.9,-30.478 -33.064,-67.442 -33.064,-107.155 0,-104.523 84.854,-189.376 189.375,-189.376 104.523,0 189.408,84.853 189.408,189.375 0,39.108 -11.68,75.664 -32,105.874 L 393.313,319.372 327,434.095 h 132.406 l -21.594,-37.47 c 32.225,-39.78 51.75,-90.253 51.75,-145.405 0,-127.927 -103.827,-231.766 -231.75,-231.782 h -0.03 z m -0.655,75.468 C 207.597,94.859 146.651,124.138 128.719,199.844 l 60.75,14.312 c 26.965,-76.242 90.87,-70.824 113.31,-28.625 26.775,50.346 -89.687,107.283 -84.124,190.407 h 77.688 c 6.49,-98.144 118.973,-123.49 59.562,-229.53 C 337.963,114.38 301,96.572 261.876,95.03 V 95 c -1.573,-0.062 -3.153,-0.092 -4.75,-0.094 z M 258.5,395.97 c -26.95,0 -48.594,21.644 -48.594,48.592 0,26.95 21.645,48.594 48.594,48.594 26.95,0 48.594,-21.645 48.594,-48.594 0,-26.948 -21.645,-48.593 -48.594,-48.593 z"
       fill="#ffffff"
       fill-opacity="1"
       id="path2" />
  </g>
</svg>
