<?xml version="1.0" encoding="UTF-8" standalone="no"?>
<svg
   viewBox="0 0 500 500"
   version="1.1"
   id="svg2"
   sodipodi:docname="taverne.svg"
   width="30"
   height="30"
   inkscape:version="1.4 (86a8ad7, 2024-10-11)"
   xmlns:inkscape="http://www.inkscape.org/namespaces/inkscape"
   xmlns:sodipodi="http://sodipodi.sourceforge.net/DTD/sodipodi-0.dtd"
   xmlns="http://www.w3.org/2000/svg"
   xmlns:svg="http://www.w3.org/2000/svg">
  <defs
     id="defs2" />
  <sodipodi:namedview
     id="namedview2"
     pagecolor="#ffffff"
     bordercolor="#000000"
     borderopacity="0.25"
     inkscape:showpageshadow="2"
     inkscape:pageopacity="0.0"
     inkscape:pagecheckerboard="0"
     inkscape:deskcolor="#d1d1d1"
     inkscape:zoom="1.6191406"
     inkscape:cx="256"
     inkscape:cy="256"
     inkscape:window-width="1920"
     inkscape:window-height="1009"
     inkscape:window-x="1912"
     inkscape:window-y="-8"
     inkscape:window-maximized="1"
     inkscape:current-layer="svg2" />
  <path
     d="M 0,0 H 512 V 512 H 0 Z"
     fill="#000000"
     fill-opacity="1"
     id="path1" />
  <g
     class=""
     id="g2">
    <path
       d="m 105,41 v 96 h 30 V 41 Z m 272,0 v 98 h 30 V 41 Z M 25,57 V 87 H 87 V 57 Z m 128,0 V 87 H 359 V 57 Z m 272,0 v 30 h 62 V 57 Z M 69,137 v 99 l 56.8,14.2 -56.8,15.5 v 126.1 c 14.39,-3.5 29.01,-1.7 42.7,3.4 17.9,6.5 34.9,18 51.6,30.1 33.4,24.3 65.9,50.3 92.7,50.3 26.8,0 59.3,-26 92.7,-50.3 16.7,-12.1 33.7,-23.6 51.6,-30.1 13.7,-5.1 28.3,-6.9 42.7,-3.4 V 349.2 L 427.6,338.5 399.4,318.9 443,323 V 220.4 L 397.3,205.9 443,196.4 V 137 h -18 v 20 H 359 V 137 H 153 v 18 H 87 v -18 z m 184.3,30 h 0.3 c 14.9,0.5 22.8,11.9 26.5,15.5 1.9,1.9 1.8,1.6 2.1,1.6 5.5,-2.5 6.8,-3.7 11.3,-7.7 h 3.4 c 10,0 18.8,5.3 24.7,12.8 5.9,7.5 9.2,17.4 9.2,28.1 0,3.9 -0.4,7.6 -1.3,11.2 4.1,-1.5 8.1,-2.7 12.2,-2.9 1.5,-0.2 2.9,-0.1 4.3,0.1 5.9,0.6 12.7,5.2 14.6,11.7 10.3,34.2 7.7,71.4 0.1,100.8 -2.7,10.6 -10.6,17.6 -18.6,20.3 -4.5,1.5 -8.9,2.1 -13.1,2.4 -0.2,2 0,32.6 0,50.1 H 183 c -0.1,-17.9 0,-34.7 0,-52 3.5,-30.3 8.9,-71.6 12.6,-104.5 -13.1,-6.2 -22.3,-18.8 -22.3,-33.7 0,-21.2 18.7,-37.8 40.6,-37.8 4.1,0 8.2,0.6 12,1.8 6.3,-10.5 15.9,-17.8 27.4,-17.8 z m -0.1,18 c -4.7,0.1 -10.7,4.3 -14.5,14.4 l -3.6,9.7 -9.1,-5 c -3.6,-2 -7.9,-3.1 -12.1,-3.1 -13.1,0 -22.6,9.2 -22.6,19.8 0,10.6 9.5,19.8 22.6,19.8 5.4,0 10.6,-1.7 14.5,-4.6 l 7.9,-5.9 5.2,8.4 c 3.8,6.3 8.1,8.5 11.8,8.5 4.7,0 10.8,-4.3 14.7,-14.6 l 6.9,-18.5 9.4,17.3 c 3.5,6.3 8.1,9 12.6,9 3.7,0 7.3,-1.9 10.5,-5.9 3.1,-4 5.4,-10.1 5.4,-17 0,-6.9 -2.3,-13 -5.4,-17 -2.4,-3 -5,-4.8 -7.8,-5.6 -5.6,4.4 -10.8,7.1 -16.5,7.4 -6.7,0.3 -12.2,-3.5 -15.5,-6.6 -6.4,-6.2 -8.1,-10.2 -14.4,-10.5 z m 90.4,58.6 c -9.9,1.2 -19.7,7.5 -26.9,13.2 l 9.6,86.1 c 3.9,-0.2 7.5,-0.6 10,-1.5 3.9,-1.3 5.6,-2.3 7,-7.6 6.8,-26.5 8.9,-60.6 0.3,-90.2 z m -65.6,7.6 c -6.2,8.3 -14.7,13.8 -24.7,13.8 -8.4,0 -16,-3.9 -21.9,-10.2 -5.5,2.5 -11.5,3.8 -17.5,3.8 h -0.6 L 202.1,359 H 309.9 L 298.7,258.1 c -0.6,0.1 -1.2,0.1 -1.8,0.1 -7,0 -13.5,-2.6 -18.9,-7 z M 201,377 v 16 h 110 v -16 z"
       fill="#ffffff"
       fill-opacity="1"
       id="path2" />
  </g>
</svg>
